<?xml version="1.0" encoding="UTF-8"?>
<svg id="Layer_1" xmlns="http://www.w3.org/2000/svg" version="1.1" viewBox="0 0 300 300">
  <!-- Generator: Adobe Illustrator 29.3.0, SVG Export Plug-In . SVG Version: 2.1.0 Build 146)  -->
  <defs>
    <style>
      .st0 {
        fill: #f6a5c1;
      }

      .st1 {
        fill: #fff;
      }

      .st2 {
        fill: #f6a5c0;
      }
    </style>
  </defs>
  <path id="player_background" class="st0" d="M267.6,44.8c-31.7-32-83-32-114.7,0l-3.6,3.6-3.6-3.6c-31.7-32-83-32-114.7,0C-.6,76.8-.6,128.7,31.1,160.8l118.3,119.6,118.3-119.6c31.7-32,31.7-83.9,0-116h0ZM149.9,179.1c-35.6,0-64.4-28.8-64.4-64.4s28.8-64.4,64.4-64.4,64.4,28.8,64.4,64.4-28.8,64.4-64.4,64.4h0Z"/>
  <ellipse id="button_background" class="st1" cx="148" cy="216.8" rx="35" ry="33.2"/>
  <g id="play_button">
    <path class="st0" d="M148,227.3l-8-7.4c-2.1-2-2.1-5.2,0-7.2s5.6-2,7.8,0l.2.2.2-.2c2.1-2,5.6-2,7.8,0,2.1,2,2.1,5.2,0,7.2l-8,7.4Z"/>
  </g>
  <circle id="decoration" class="st0" cx="148" cy="195.1" r="4.8"/>
  <g id="deecoration">
    <polygon class="st0" points="122.7 217.6 130.7 222.3 130.7 212.9 122.7 217.6"/>
    <polygon class="st0" points="114.8 217.6 122.7 222.3 122.7 217.6 122.7 212.9 114.8 217.6"/>
  </g>
  <g id="decoration1">
    <polygon class="st0" points="171.2 217.6 163.3 212.9 163.3 222.3 171.2 217.6"/>
    <polygon class="st0" points="179.2 217.6 171.2 212.9 171.2 217.6 171.2 222.3 179.2 217.6"/>
  </g>
  <g id="pause_button">
    <rect class="st2" x="142.5" y="234.9" width="4.2" height="10.9"/>
    <rect class="st2" x="149.2" y="234.9" width="4.2" height="10.9"/>
  </g>
</svg>